Coordinates
version=1
nRows=18
nColumns=19
inDegrees=yes

Units are S.I. units (second, meters, Newtons, ...)
If the header above contains a line with 'inDegrees', this indicates whether rotational values are in degrees (yes) or radians (no).

endheader
time	pelvis_tilt	pelvis_list	pelvis_rotation	pelvis_tx	pelvis_ty	pelvis_tz	hip_flexion_r	hip_adduction_r	hip_rotation_r	knee_angle_r	knee_angle_r_beta	ankle_angle_r	hip_flexion_l	hip_adduction_l	hip_rotation_l	knee_angle_l	knee_angle_l_beta	ankle_angle_l
     11.73333333	    -15.05222968	     -6.58070674	      0.56912547	      2.15485933	      0.93353494	      0.93060680	     40.59083166	      7.40048830	    -17.41732657	     15.26821575	      0.26648064	     11.33978271	    -11.94781331	     -9.13910679	     -0.96355817	     40.18058544	      0.70128351	    -15.71247560
     11.74000000	    -14.33890193	     -7.15779673	      0.28220401	      2.15558538	      0.93045486	      0.93070113	     40.02485611	      7.91491490	    -18.31720763	     16.82781271	      0.29370074	     11.12106875	    -11.85855550	    -10.03685126	     -1.66671508	     43.94796767	      0.76703674	    -16.81181136
     11.74666667	    -14.14475536	     -7.54930466	      0.02358297	      2.15558095	      0.92634081	      0.93070541	     40.29678484	      7.99623758	    -19.34490727	     19.38183047	      0.33827676	     10.69193167	    -10.84474479	    -10.75982851	     -2.07690208	     48.23575622	      0.84187276	    -17.79631788
     11.75333333	    -13.32034613	     -8.02673621	     -0.38635104	      2.15580487	      0.92270528	      0.93077799	     39.86842279	      8.22065388	    -20.13101257	     22.30842756	      0.38935551	     10.31054775	    -10.59542072	    -11.60195416	     -2.85906244	     52.30209797	      0.91284382	    -19.03603065
     11.76000000	    -13.04791241	     -8.29626298	     -0.66664307	      2.15579236	      0.91826989	      0.93066076	     40.09519899	      8.05975161	    -20.72165289	     25.70072189	      0.44856222	     10.02315816	     -9.50805020	    -12.20963557	     -3.14261434	     56.51868326	      0.98643711	    -20.19085342
     11.76666667	    -12.10735699	     -8.71730127	     -1.05737458	      2.15593750	      0.91450380	      0.93067758	     39.47160967	      8.20629225	    -20.92626211	     29.04575063	      0.50694398	      9.95209014	     -9.23117428	    -12.99132798	     -3.72480330	     60.47270193	      1.05544776	    -21.34102771
     11.77333333	    -11.69682187	     -8.83545812	     -1.31507037	      2.15575762	      0.91023868	      0.93058783	     39.41067447	      8.01135332	    -20.75460264	     32.53458651	      0.56783566	     10.20460784	     -8.13146638	    -13.37195537	     -3.72088208	     64.46150234	      1.12506546	    -22.21791091
     11.78000000	    -10.88792889	     -9.07423712	     -1.63019377	      2.15556266	      0.90658759	      0.93060750	     38.75788250	      8.13206863	    -20.20669189	     35.75725354	      0.62408181	     10.82545417	     -7.47373368	    -13.86972831	     -3.84634985	     68.23349298	      1.19089911	    -22.85802147
     11.78666667	    -10.02054986	     -9.31458472	     -1.91385562	      2.15521837	      0.90325076	      0.93076569	     37.89773851	      8.34479004	    -19.53112034	     38.75326551	      0.67637208	     11.88732413	     -6.78084262	    -14.40812414	     -3.93557919	     71.86633327	      1.25430414	    -23.27519646
     11.79333333	     -9.94724369	     -8.95864858	     -2.14651025	      2.15421082	      0.89947528	      0.93092861	     37.86354171	      8.06759519	    -18.37343727	     41.69785469	      0.72776486	     13.30256147	     -4.89678665	    -14.11334235	     -3.38052483	     75.50165588	      1.31775249	    -23.30765188
     11.80000000	     -9.59415895	     -8.80943963	     -2.32165961	      2.15319458	      0.89645883	      0.93119433	     37.27002529	      8.07521487	    -17.32515770	     44.15876358	      0.77071582	     15.01502125	     -3.26644846	    -14.10867128	     -2.92905034	     78.89609214	      1.37699657	    -23.13389500
     11.80666667	     -9.31176773	     -8.52804268	     -2.35667686	      2.15193636	      0.89388985	      0.93136951	     36.56026294	      7.94484140	    -16.33480338	     46.27152790	      0.80759051	     16.95905223	     -1.37351759	    -13.88192195	     -2.20645879	     82.10619729	      1.43302348	    -22.77719566
     11.81333333	     -8.64188825	     -8.45945866	     -2.41623005	      2.15080322	      0.89235121	      0.93172855	     35.09607774	      8.13106951	    -15.42413206	     47.79040904	      0.83409999	     19.09812368	      0.08235008	    -14.01439076	     -1.77959934	     84.97423308	      1.48308015	    -22.26028212
     11.82000000	     -8.99930077	     -7.89327189	     -2.17480211	      2.14907918	      0.89025810	      0.93167088	     34.65802572	      7.63159132	    -14.69473895	     49.15547654	      0.85792491	     21.09458403	      3.07509945	    -13.32865077	     -0.55141972	     87.83019300	      1.53292605	    -21.60839875
     11.82666667	     -8.83494738	     -7.51615043	     -1.85166592	      2.14758684	      0.88935573	      0.93152630	     33.33055842	      7.30219189	    -14.19678368	     49.95810046	      0.87193334	     23.06182989	      5.47636142	    -12.86058965	      0.50725252	     90.27594351	      1.57561245	    -20.94967440
     11.83333333	     -8.82716984	     -7.10449003	     -1.50510711	      2.14612119	      0.88881431	      0.93134521	     31.94608660	      6.94120411	    -13.79147402	     50.36474285	      0.87903059	     24.87980189	      8.10330344	    -12.31570427	      1.53364951	     92.43290296	      1.61325849	    -20.24383194
     11.84000000	     -8.74106106	     -6.68413662	     -1.08717476	      2.14470620	      0.88895366	      0.93106708	     30.26015813	      6.53323944	    -13.54611395	     50.38161279	      0.87932503	     26.39590435	     10.66595002	    -11.69316097	      2.52925012	     94.23746454	      1.64475404	    -19.50090011
     11.84666667	     -8.72571451	     -6.26054506	     -0.66345548	      2.14342506	      0.88954659	      0.93071558	     28.45790273	      6.12753154	    -13.37308017	     50.04919256	      0.87352320	     27.61686680	     13.29035035	    -11.02039017	      3.42998249	     95.69456168	      1.67018518	    -18.77492783
